<svg width="100" height="100" viewBox="0 0 100 100" fill="none" xmlns="http://www.w3.org/2000/svg">
<path fill-rule="evenodd" clip-rule="evenodd" d="M33.3333 41.6667C33.3333 32.462 40.7952 25.0001 50 25.0001C59.2046 25.0001 66.6667 32.462 66.6667 41.6667V45.8334H70.8333C78.8875 45.8334 85.4167 52.3626 85.4167 60.4167C85.4167 68.4709 78.8875 75.0001 70.8333 75.0001H66.6667C64.3654 75.0001 62.5 76.8655 62.5 79.1667C62.5 81.468 64.3654 83.3334 66.6667 83.3334H70.8333C83.49 83.3334 93.75 73.0734 93.75 60.4167C93.75 49.0805 85.5187 39.6666 74.7067 37.8261C72.8592 25.8423 62.5012 16.6667 50 16.6667C37.4989 16.6667 27.1409 25.8423 25.2932 37.8261C14.4813 39.6666 6.25 49.0805 6.25 60.4167C6.25 73.0734 16.5101 83.3334 29.1667 83.3334H33.3333C35.6345 83.3334 37.5 81.468 37.5 79.1667C37.5 76.8655 35.6345 75.0001 33.3333 75.0001H29.1667C21.1125 75.0001 14.5833 68.4709 14.5833 60.4167C14.5833 52.3626 21.1125 45.8334 29.1667 45.8334H33.3333V41.6667ZM65.4462 55.3872L52.9462 42.8872C51.3192 41.26 48.6808 41.26 47.0537 42.8872L34.5537 55.3872C32.9265 57.0142 32.9265 59.6526 34.5537 61.2797C36.1809 62.9067 38.8191 62.9067 40.4463 61.2797L45.8333 55.8926V79.1667C45.8333 81.468 47.6987 83.3334 50 83.3334C52.3012 83.3334 54.1667 81.468 54.1667 79.1667V55.8926L59.5537 61.2797C61.1808 62.9067 63.8192 62.9067 65.4462 61.2797C67.0733 59.6526 67.0733 57.0142 65.4462 55.3872Z" fill="#2A2216"/>
</svg>
