<svg width="40" height="41" viewBox="0 0 40 41" fill="none" xmlns="http://www.w3.org/2000/svg">
<path fill-rule="evenodd" clip-rule="evenodd" d="M13.3333 17.1667C13.3333 13.4848 16.3181 10.5001 20 10.5001C23.6818 10.5001 26.6667 13.4848 26.6667 17.1667V18.8334H28.3333C31.555 18.8334 34.1667 21.4451 34.1667 24.6667C34.1667 27.8884 31.555 30.5001 28.3333 30.5001H26.6667C25.7462 30.5001 25 31.2463 25 32.1667C25 33.0872 25.7462 33.8334 26.6667 33.8334H28.3333C33.396 33.8334 37.5 29.7294 37.5 24.6667C37.5 20.1322 34.2075 16.3667 29.8827 15.6305C29.1437 10.837 25.0005 7.16675 20 7.16675C14.9996 7.16675 10.8563 10.837 10.1173 15.6305C5.79252 16.3667 2.5 20.1322 2.5 24.6667C2.5 29.7294 6.60405 33.8334 11.6667 33.8334H13.3333C14.2538 33.8334 15 33.0872 15 32.1667C15 31.2463 14.2538 30.5001 13.3333 30.5001H11.6667C8.445 30.5001 5.83333 27.8884 5.83333 24.6667C5.83333 21.4451 8.445 18.8334 11.6667 18.8334H13.3333V17.1667ZM26.1785 22.6549L21.1785 17.6549C20.5277 17.004 19.4723 17.004 18.8215 17.6549L13.8215 22.6549C13.1706 23.3057 13.1706 24.3611 13.8215 25.0119C14.4724 25.6627 15.5276 25.6627 16.1785 25.0119L18.3333 22.8571V32.1667C18.3333 33.0872 19.0795 33.8334 20 33.8334C20.9205 33.8334 21.6667 33.0872 21.6667 32.1667V22.8571L23.8215 25.0119C24.4723 25.6627 25.5277 25.6627 26.1785 25.0119C26.8293 24.3611 26.8293 23.3057 26.1785 22.6549Z" fill="white"/>
</svg>
